# xmcd
#
# Track frame offsets:
#	151
#	19758
#	33445
#	44290
#	59576
#	74894
#	91997
#	107850
#	118111
#	134864
#
# Disc length: 1996 seconds
#
# Revision: 1
# Processed by: cddbd v1.5.1PL2 Copyright (c) Steve Scherf et al.
# Submitted via: audiograbber 1.83.01
#
DISCID=9b07ca0a
DTITLE=Nelons - Let The Redeemed Say So
DYEAR=1989
DGENRE=Southern Gospel
TTITLE0=Let The Redeemed Say So
TTITLE1=I Will Give You Water
TTITLE2=I Want To Praise Jesus
TTITLE3=He's The Calm Before The Storm
TTITLE4=Singing In The Midnight Hour
TTITLE5=Stand Still
TTITLE6=We're Gonna Walk In White
TTITLE7=He's Never Gone Back On A Promise
TTITLE8=He Left It All
TTITLE9=Get Up, Get Ready
EXTD=
EXTT0=
EXTT1=
EXTT2=
EXTT3=
EXTT4=
EXTT5=
EXTT6=
EXTT7=
EXTT8=
EXTT9=
PLAYORDER=
